<?xml version="1.0" encoding="UTF-8" standalone="no"?>
<svg
   xmlns:dc="http://purl.org/dc/elements/1.1/"
   xmlns:cc="http://creativecommons.org/ns#"
   xmlns:rdf="http://www.w3.org/1999/02/22-rdf-syntax-ns#"
   xmlns:svg="http://www.w3.org/2000/svg"
   xmlns="http://www.w3.org/2000/svg"
   xmlns:sodipodi="http://sodipodi.sourceforge.net/DTD/sodipodi-0.dtd"
   xmlns:inkscape="http://www.inkscape.org/namespaces/inkscape"
   version="1.0"
   width="1224.000000pt"
   height="1224.000000pt"
   viewBox="0 0 1224.000000 1224.000000"
   preserveAspectRatio="xMidYMid meet"
   id="svg22"
   sodipodi:docname="safari-pinned-tab.svg"
   inkscape:version="0.92.4 (5da689c313, 2019-01-14)">
  <defs
     id="defs26" />
  <sodipodi:namedview
     pagecolor="#ffffff"
     bordercolor="#666666"
     borderopacity="1"
     objecttolerance="10"
     gridtolerance="10"
     guidetolerance="10"
     inkscape:pageopacity="0"
     inkscape:pageshadow="2"
     inkscape:window-width="1920"
     inkscape:window-height="1001"
     id="namedview24"
     showgrid="false"
     inkscape:zoom="0.14460784"
     inkscape:cx="-338.84748"
     inkscape:cy="815.99998"
     inkscape:window-x="-9"
     inkscape:window-y="-9"
     inkscape:window-maximized="1"
     inkscape:current-layer="svg22" />
  <metadata
     id="metadata2">
Created by potrace 1.11, written by Peter Selinger 2001-2013
<rdf:RDF>
  <cc:Work
     rdf:about="">
    <dc:format>image/svg+xml</dc:format>
    <dc:type
       rdf:resource="http://purl.org/dc/dcmitype/StillImage" />
  </cc:Work>
</rdf:RDF>
</metadata>
  <rect
     style="display:inline;opacity:1;fill:#3dff6a;fill-opacity:1;stroke:none;stroke-width:39.66941452;stroke-miterlimit:4;stroke-dasharray:none;stroke-opacity:1"
     id="rect853-8"
     width="267.31003"
     height="86.382187"
     x="744.58655"
     y="827.74933" />
  <path
     style="display:inline;fill:#050505;fill-opacity:1;stroke:none;stroke-width:4.20478487px;stroke-linecap:butt;stroke-linejoin:miter;stroke-opacity:1"
     d="M 150.34667,650.34791 73.48366,583.4493 126.14907,600.52971 19.394896,446.80353 118.9155,536.28779 27.935264,382.75095 l 69.745991,44.12529 74.016205,98.21339 -71.16941,-153.72534 68.32263,39.85457 51.24197,103.90713 -15.6573,-132.37504 49.81862,39.8554 24.19759,66.89945 17.08066,-79.70996 41.27824,56.93496 28.46778,-22.77415 39.85487,34.16165 37.00809,-4.26989 29.89114,31.31479 27.04435,-5.69375 82.55663,69.74547 -69.7461,91.80856 -165.11302,52.66592 z"
     id="path4765"
     inkscape:connector-curvature="0"
     sodipodi:nodetypes="ccccccccccccccccccccccccc" />
  <path
     sodipodi:type="star"
     style="display:inline;opacity:1;fill:none;fill-opacity:1;stroke:#3dff6a;stroke-width:5.60185868;stroke-miterlimit:4;stroke-dasharray:none;stroke-opacity:1"
     id="path4748"
     sodipodi:sides="3"
     sodipodi:cx="89.207481"
     sodipodi:cy="80.07177"
     sodipodi:r1="34.589081"
     sodipodi:r2="17.294538"
     sodipodi:arg1="0.95837329"
     sodipodi:arg2="2.0055708"
     inkscape:flatsided="true"
     inkscape:rounded="0"
     inkscape:randomized="0"
     d="M 109.09108,108.37455 54.75476,83.140081 103.77661,48.700683 Z"
     inkscape:transform-center-x="-0.48839951"
     inkscape:transform-center-y="44.502924"
     transform="matrix(12.0045,8.5313547,-8.5313547,12.0045,221.78538,-1122.7307)" />
  <path
     style="display:inline;fill:#000000;fill-opacity:1;stroke:none;stroke-width:4.20478487px;stroke-linecap:butt;stroke-linejoin:miter;stroke-opacity:1"
     d="m 576.32208,575.55833 21.7789,-130.5725 -25.22866,-124.04143 19.97281,29.43397 12.61429,59.91818 -12.61429,-59.91818 -23.12629,-190.26682 40.99658,51.50883 9.01019,131.71865 c 0,0 1.78775,-188.88504 -9.24463,-279.064401 l 54.89671,100.042021 4.20467,124.04143 c 4.86512,-80.64238 10.98793,-161.19976 16.8191,-241.775652 l 37.8431,71.481542 -9.46081,134.55291 C 735.9334,188.05687 742.20129,113.30011 764.9311,49.285413 l 32.89699,81.393007 -22.95748,102.11974 17.70171,-27.48501 64.12293,-107.221893 -1.05067,56.764133 -16.81911,65.17433 52.55992,-49.40585 -7.35823,70.42964 31.53614,-12.61444 6.30689,62.02114 18.92177,-6.30722 1.05198,60.96923 18.92148,-1.05191 -12.61437,65.17433 17.87022,7.35829 -21.02377,49.40669 18.92148,2.10213 2.42091,67.63325 -33.71759,75.77249 -41.36243,43.94184 -31.41004,-18.10454 22.07511,39.53646 -18.92156,34.0472 -56.7645,14.71657 z"
     id="path4742"
     inkscape:connector-curvature="0"
     sodipodi:nodetypes="ccccccccccccccccccccccccccccccccccccccccc" />
  <rect
     style="display:inline;opacity:1;fill:#3dff6a;fill-opacity:1;stroke:none;stroke-width:40.05240631;stroke-miterlimit:4;stroke-dasharray:none;stroke-opacity:1"
     id="rect853"
     width="272.49649"
     height="86.382195"
     x="210.38322"
     y="827.74933" />
  <path
     style="display:inline;fill:#000000;fill-opacity:1;stroke:none;stroke-width:4.20478487px;stroke-linecap:butt;stroke-linejoin:miter;stroke-opacity:1"
     d="m 908.58991,828.25191 -1.04965,37.84332 24.17747,74.6347 38.89435,-22.07485 h 36.79192 l -34.6894,6.30637 v 13.66558 l -31.53599,18.92162 15.76799,9.46124 12.23841,4.18235 16.66381,2.70389 15.24798,-10.04111 -7.49197,16.01588 -18.82068,7.5191 17.90289,6.9391 20.91536,-4.6022 -20.91536,15.1246 -23.12622,-1.0518 5.26735,6.6286 24.16669,4.9339 -26.27976,3.154 -43.09924,-34.6901 -34.68939,-40.99568 -31.53571,-54.66291 -23.12651,-9.46038 28.38229,-17.87058 23.12631,51.50879 15.76784,18.92171 L 889.67062,873.451 866.5441,860.83655 Z"
     id="path4746"
     inkscape:connector-curvature="0"
     sodipodi:nodetypes="ccccccccccccccccccccccccccccccc" />
  <path
     style="display:inline;fill:#080a00;fill-opacity:1;stroke:none;stroke-width:4.20478487px;stroke-linecap:butt;stroke-linejoin:miter;stroke-opacity:1"
     d="m 318.00715,721.17055 -44.17202,34.06066 -10.66101,38.28008 65.44027,-17.83946 83.62665,4.39275 121.58239,19.18421 87.32424,57.5535 142.04291,3.29455 89.97065,23.84884 65.17414,-53.611 56.76471,-30.4842 149.26982,-14.71741 51.5087,-29.43313 h -71.4814 l 74.147,-6.55798 20.3182,-29.17732 -108.6238,5.67187 111.911,-13.45597 -9.4519,-19.02769 -3.1535,-7.88423 -156.6283,28.3829 -240.72376,-8.40933 -215.68203,-137.28618 -78.93471,96.19373 -80.15251,3.2407 -33.57949,7.74707 -33.79435,33.53052 z"
     id="path4744"
     inkscape:connector-curvature="0"
     sodipodi:nodetypes="cccccccccccccccccccccccccccc" />
  <path
     style="display:inline;fill:#000000;fill-opacity:1;stroke:none;stroke-width:4.20478487px;stroke-linecap:butt;stroke-linejoin:miter;stroke-opacity:1"
     d="m 908.73529,948.44338 28.77701,-27.4059 h 28.77665 l -30.14703,9.59168 5.48082,16.44421 -20.55497,24.66589 z"
     id="path951"
     inkscape:connector-curvature="0" />
</svg>
