<?xml version="1.0" encoding="UTF-8" standalone="no"?>
<!-- Created with Inkscape (http://www.inkscape.org/) -->

<svg
   xmlns:dc="http://purl.org/dc/elements/1.1/"
   xmlns:cc="http://creativecommons.org/ns#"
   xmlns:rdf="http://www.w3.org/1999/02/22-rdf-syntax-ns#"
   xmlns:svg="http://www.w3.org/2000/svg"
   xmlns="http://www.w3.org/2000/svg"
   xmlns:sodipodi="http://sodipodi.sourceforge.net/DTD/sodipodi-0.dtd"
   xmlns:inkscape="http://www.inkscape.org/namespaces/inkscape"
   width="71.822678mm"
   height="71.822678mm"
   viewBox="0 0 71.822678 71.822678"
   version="1.1"
   id="svg8"
   inkscape:version="0.92.4 (5da689c313, 2019-01-14)"
   sodipodi:docname="Kofi1.svg">
  <defs
     id="defs2" />
  <sodipodi:namedview
     id="base"
     pagecolor="#ffffff"
     bordercolor="#666666"
     borderopacity="1.0"
     inkscape:pageopacity="0.0"
     inkscape:pageshadow="2"
     inkscape:zoom="0.73851712"
     inkscape:cx="106.04786"
     inkscape:cy="33.495988"
     inkscape:document-units="mm"
     inkscape:current-layer="layer1"
     showgrid="false"
     inkscape:window-width="1920"
     inkscape:window-height="1001"
     inkscape:window-x="-9"
     inkscape:window-y="-9"
     inkscape:window-maximized="1"
     inkscape:pagecheckerboard="true" />
  <metadata
     id="metadata5">
    <rdf:RDF>
      <cc:Work
         rdf:about="">
        <dc:format>image/svg+xml</dc:format>
        <dc:type
           rdf:resource="http://purl.org/dc/dcmitype/StillImage" />
        <dc:title></dc:title>
      </cc:Work>
    </rdf:RDF>
  </metadata>
  <g
     inkscape:label="Layer 1"
     inkscape:groupmode="layer"
     id="layer1"
     transform="translate(-67.089272,-85.539803)">
    <circle
       style="opacity:1;fill:#3dff6a;fill-opacity:1;stroke:none;stroke-width:0;stroke-linejoin:miter;stroke-miterlimit:4;stroke-dasharray:none;stroke-opacity:1"
       id="path39"
       cx="103.00061"
       cy="121.45114"
       r="35.911339" />
    <rect
       style="opacity:1;fill:#000000;fill-opacity:1;stroke:none;stroke-width:0;stroke-linejoin:miter;stroke-miterlimit:4;stroke-dasharray:none;stroke-opacity:1"
       id="rect848"
       width="23.287092"
       height="23.287092"
       x="88.490959"
       y="113.56936" />
    <path
       style="fill:#ffffff;stroke-width:0.11003028"
       d="m 86.442923,139.2334 c -1.434707,-0.3681 -2.828093,-1.37044 -3.421987,-2.46164 -0.712133,-1.30841 -0.680122,-0.60295 -0.680122,-14.98917 v -13.04654 l 0.309877,-0.46834 c 0.178589,-0.26992 0.468447,-0.5346 0.684154,-0.62473 0.585327,-0.24456 37.486425,-0.23176 38.998955,0.0136 1.8007,0.29203 3.55667,0.9773 5.0094,1.95494 0.86833,0.58436 2.26727,1.94123 2.87426,2.78783 1.9467,2.71519 2.68553,6.89931 1.81525,10.28019 -1.35953,5.28161 -6.23439,8.73637 -12.45905,8.8296 l -1.27776,0.0191 -0.0651,1.15532 c -0.1192,2.11521 -0.72159,3.61911 -1.9427,4.85006 -0.76297,0.76912 -1.68036,1.29908 -2.75868,1.59366 -0.90721,0.24783 -26.148737,0.34675 -27.086491,0.10615 z m 16.245017,-8.40483 c 2.38505,-2.23286 5.8609,-5.76375 6.51982,-6.62307 0.94413,-1.23126 1.46106,-2.66805 1.46423,-4.06981 0.005,-2.2498 -1.29524,-4.0658 -3.47321,-4.8506 -0.93707,-0.33766 -2.47382,-0.34587 -3.51209,-0.0188 -0.91365,0.28784 -1.93706,0.88581 -2.7643,1.61515 l -0.59953,0.52858 -0.478037,-0.44063 c -1.285101,-1.18457 -2.677181,-1.78059 -4.35588,-1.86498 -1.237966,-0.0622 -2.05637,0.0851 -2.947873,0.53054 -2.241983,1.12033 -3.084425,3.81012 -2.107003,6.72735 0.514538,1.5357 1.375474,2.606 4.458644,5.54291 4.2725,4.06983 5.213649,4.90389 5.492429,4.86754 0.16068,-0.021 1.05468,-0.77575 2.3028,-1.94422 z m 20.24582,-5.83689 c 2.23062,-1.07968 3.27892,-2.92493 3.28757,-5.78685 0.003,-0.97707 -0.0439,-1.34703 -0.24339,-1.9196 -0.45581,-1.3086 -1.42469,-2.46438 -2.54081,-3.03096 -0.97107,-0.49294 -1.59054,-0.60597 -3.32088,-0.60597 h -1.63049 v 5.86828 c 0,3.22756 0.0371,5.90712 0.0825,5.95461 0.0454,0.0474 0.83354,0.0619 1.75145,0.0322 l 1.66892,-0.0541 z"
       id="path29"
       inkscape:connector-curvature="0" />
  </g>
</svg>
