<?xml version="1.0" encoding="UTF-8" standalone="no"?>
<!-- Created with Inkscape (http://www.inkscape.org/) -->

<svg
   xmlns:dc="http://purl.org/dc/elements/1.1/"
   xmlns:cc="http://creativecommons.org/ns#"
   xmlns:rdf="http://www.w3.org/1999/02/22-rdf-syntax-ns#"
   xmlns:svg="http://www.w3.org/2000/svg"
   xmlns="http://www.w3.org/2000/svg"
   xmlns:sodipodi="http://sodipodi.sourceforge.net/DTD/sodipodi-0.dtd"
   xmlns:inkscape="http://www.inkscape.org/namespaces/inkscape"
   width="71.822678mm"
   height="71.822678mm"
   viewBox="0 0 71.822678 71.822678"
   version="1.1"
   id="svg8"
   inkscape:version="0.92.4 (5da689c313, 2019-01-14)"
   sodipodi:docname="mail.svg">
  <defs
     id="defs2" />
  <sodipodi:namedview
     id="base"
     pagecolor="#ffffff"
     bordercolor="#666666"
     borderopacity="1.0"
     inkscape:pageopacity="0.0"
     inkscape:pageshadow="2"
     inkscape:zoom="3.0539043"
     inkscape:cx="135.72789"
     inkscape:cy="135.72789"
     inkscape:document-units="mm"
     inkscape:current-layer="layer1"
     showgrid="false"
     inkscape:window-width="1920"
     inkscape:window-height="1001"
     inkscape:window-x="-9"
     inkscape:window-y="-9"
     inkscape:window-maximized="1"
     inkscape:pagecheckerboard="true"
     inkscape:snap-global="false" />
  <metadata
     id="metadata5">
    <rdf:RDF>
      <cc:Work
         rdf:about="">
        <dc:format>image/svg+xml</dc:format>
        <dc:type
           rdf:resource="http://purl.org/dc/dcmitype/StillImage" />
        <dc:title></dc:title>
      </cc:Work>
    </rdf:RDF>
  </metadata>
  <g
     inkscape:label="Layer 1"
     inkscape:groupmode="layer"
     id="layer1"
     transform="translate(-67.089272,-85.539803)">
    <circle
       style="opacity:1;fill:#3dff6a;fill-opacity:1;stroke:none;stroke-width:0;stroke-linejoin:miter;stroke-miterlimit:4;stroke-dasharray:none;stroke-opacity:1"
       id="path39"
       cx="103.00061"
       cy="121.45114"
       r="35.911339" />
    <path
       style="display:inline;fill:#000000;fill-opacity:1;stroke:none;stroke-width:0.26458156px;stroke-linecap:butt;stroke-linejoin:miter;stroke-opacity:1"
       d="m 122.58768,121.57188 4.83649,4.20959 -3.3139,-1.07479 6.71734,9.6731 -6.26218,-5.63072 5.7248,9.66118 -4.38866,-2.77654 -4.65736,-6.18003 4.47823,9.67309 -4.29911,-2.50784 -3.22432,-6.53829 0.98521,8.32961 -3.13475,-2.50784 -1.5226,-4.20959 -1.07478,5.01568 -2.59737,-3.58263 -1.79129,1.43305 -2.50781,-2.14958 -2.32868,0.2687 -1.88085,-1.97045 -1.70173,0.35827 -5.194753,-4.38872 4.388676,-5.777 10.389477,-3.31393 z"
       id="path4765"
       inkscape:connector-curvature="0"
       sodipodi:nodetypes="ccccccccccccccccccccccccc" />
    <path
       style="display:inline;fill:#000000;fill-opacity:1;stroke:none;stroke-width:0.26458332px;stroke-linecap:butt;stroke-linejoin:miter;stroke-opacity:1"
       d="m 115.02232,127.1683 -3.84221,7.39061 -0.90204,7.91376 -0.62296,-2.14979 0.41014,-3.83106 -0.41014,3.83106 -2.31555,11.83614 -1.4519,-3.87966 2.02193,-8.05788 c 0,0 -3.77968,11.26902 -4.87289,16.88033 l -1.34007,-7.05441 2.16022,-7.50499 c -1.85916,4.73144 -3.79192,9.43329 -5.707605,14.14197 l -0.874827,-5.01361 3.182412,-7.86835 c -2.520995,3.45238 -4.349659,7.80427 -6.954628,11.19328 l -0.386114,-5.51059 3.359512,-5.66494 -1.59377,1.30063 -5.922245,5.16988 1.166595,-3.37665 2.273779,-3.5733 -4.106083,1.93473 1.809801,-4.0718 -2.132538,0.14172 0.82848,-3.83426 -1.254999,0.01 1.122527,-3.66916 -1.152808,-0.30495 2.022148,-3.65506 -0.926372,-0.78783 2.218831,-2.54793 -1.091483,-0.49372 1.170188,-4.09459 3.491121,-3.87895 3.329746,-1.82545 1.527685,1.69421 -0.552321,-2.79532 1.794358,-1.6696 3.68322,0.223 z"
       id="path4742"
       inkscape:connector-curvature="0"
       sodipodi:nodetypes="ccccccccccccccccccccccccccccccccccccccccc" />
    <path
       style="display:inline;fill:#000000;fill-opacity:1;stroke:none;stroke-width:0.26458332px;stroke-linecap:butt;stroke-linejoin:miter;stroke-opacity:1"
       d="m 89.412066,122.50679 -0.532773,2.32182 -2.649762,4.16523 -2.021178,-1.95807 -2.241231,-0.58019 2.013703,0.93124 -0.215499,0.83246 1.622665,1.64992 -1.109717,0.32766 -0.81149,0.0618 -1.05774,-0.0981 -0.770505,-0.8521 0.203817,1.09377 1.027917,0.75482 -1.200006,0.14039 -1.201506,-0.61018 1.035567,1.25119 1.425353,0.3006 -0.425366,0.32074 -1.549957,-0.0805 1.551149,0.60653 3.17247,-1.43352 2.759645,-1.95033 2.783036,-2.83251 1.557964,-0.21163 -1.447143,-1.53617 -2.221024,2.77303 -1.25891,0.90398 2.00032,-3.24013 1.607692,-0.40373 z"
       id="path4746"
       inkscape:connector-curvature="0"
       sodipodi:nodetypes="ccccccccccccccccccccccccccccccc" />
    <path
       style="display:inline;fill:#000000;fill-opacity:1;stroke:none;stroke-width:0.26458332px;stroke-linecap:butt;stroke-linejoin:miter;stroke-opacity:1"
       d="m 128.51728,117.86601 2.77949,2.14326 0.67084,2.40872 -4.11778,-1.1225 -5.26215,0.27639 -7.6505,1.20715 -5.49482,3.6215 -8.93796,0.20729 -5.661339,1.50069 -4.10104,-3.37344 -3.57188,-1.91822 -9.39271,-0.92604 -3.24114,-1.85209 h 4.49791 l -4.66565,-0.41266 -1.2785,-1.83594 6.83508,0.35687 -7.04193,-0.84668 0.59475,-1.19726 0.19844,-0.4961 9.85573,1.78594 15.14739,-0.52917 13.571639,-8.63867 4.96692,6.05296 5.04354,0.2039 2.11297,0.48749 2.12648,2.10988 z"
       id="path4744"
       inkscape:connector-curvature="0"
       sodipodi:nodetypes="cccccccccccccccccccccccccccc" />
    <path
       style="display:inline;fill:#000000;fill-opacity:1;stroke:none;stroke-width:0.26458332px;stroke-linecap:butt;stroke-linejoin:miter;stroke-opacity:1"
       d="m 87.507846,129.82612 -1.320803,-2.12329 -1.752975,-0.45379 1.685191,1.05972 -0.593214,0.91526 0.863168,1.8267 z"
       id="path951"
       inkscape:connector-curvature="0" />
    <rect
       style="opacity:1;fill:#3dff6a;fill-opacity:1;stroke:none;stroke-width:0;stroke-linejoin:miter;stroke-miterlimit:4;stroke-dasharray:none;stroke-opacity:1"
       id="rect1420"
       width="15.783701"
       height="11.740676"
       x="136.46347"
       y="81.369141"
       transform="matrix(0.97961601,0.20087927,-0.42999043,0.90283345,0,0)" />
    <rect
       style="opacity:1;fill:#3dff6a;fill-opacity:1;stroke:none;stroke-width:0;stroke-linejoin:miter;stroke-miterlimit:4;stroke-dasharray:none;stroke-opacity:1"
       id="rect1420-6"
       width="22.1185"
       height="13.76853"
       x="104.35794"
       y="104.21374"
       transform="matrix(0.999991,0.00424317,-0.0754341,0.99715079,0,0)" />
    <path
       style="fill:#000000;fill-opacity:1;stroke:none;stroke-width:0.27337134px;stroke-linecap:butt;stroke-linejoin:miter;stroke-opacity:1"
       d="m 93.196798,117.4452 9.465342,-1.64665 1.96068,-1.20331 1.96067,-0.38 5.74682,0.25333 4.34735,0.5061 1.53468,0.0639 -1.28459,6.26993 -24.745096,-1.64665 z"
       id="path1452"
       inkscape:connector-curvature="0" />
    <path
       id="path1492"
       style="fill:#ffffff;stroke-width:0.11814517"
       d="m 95.485388,98.082371 -7.1764,-5.557161 11.365193,-0.21422 C 105.92504,92.1932 112.46744,92.09326 114.21285,92.0889 l 3.1735,-0.008 -7.23696,5.735021 c -3.9803,3.154299 -7.29335,5.754909 -7.36229,5.779219 -0.0689,0.0244 -3.354699,-2.45651 -7.301722,-5.512949 z m -8.73035,4.197999 c -0.0576,-5.138489 -0.0616,-9.32549 -0.009,-9.30442 0.0528,0.021 2.83913,2.16088 6.1919,4.755151 5.688043,4.401179 6.082653,4.729889 5.896753,4.911919 -0.249473,0.24425 -11.843673,8.9786 -11.919553,8.97946 -0.0306,3.5e-4 -0.10273,-4.20361 -0.16034,-9.34211 z m 26.140752,4.64169 c -3.45168,-2.44257 -6.27655,-4.49418 -6.27748,-4.55916 -9.2e-4,-0.065 2.31881,-1.95187 5.15493,-4.193119 2.83615,-2.241221 5.65291,-4.467461 6.2595,-4.947121 l 1.1029,-0.87211 0.10665,9.51321 c 0.0587,5.23227 0.0667,9.51007 0.018,9.50623 -0.0488,-0.004 -2.9128,-2.00543 -6.36448,-4.44797 z m -9.95545,5.75441 c -5.491352,-0.0189 -11.144682,-0.0268 -12.562972,-0.0175 l -2.57869,0.0169 0.33082,-0.28067 c 0.18197,-0.15433 2.95744,-2.26061 6.16776,-4.68053 l 5.836942,-4.39986 1.02652,0.78944 c 1.1064,0.85089 1.4428,1.06943 1.65269,1.07363 0.0739,0.001 0.67834,-0.4302 1.34316,-0.95926 0.66537,-0.52948 1.28144,-0.93496 1.37045,-0.90196 0.17193,0.0638 12.22263,8.58502 12.82899,9.07156 l 0.35767,0.28701 -2.89454,0.0179 c -1.59199,0.01 -7.38746,0.002 -12.87881,-0.0166 z"
       inkscape:connector-curvature="0" />
  </g>
</svg>
