<?xml version="1.0" encoding="UTF-8" standalone="no"?>
<!-- Created with Inkscape (http://www.inkscape.org/) -->

<svg
   xmlns:dc="http://purl.org/dc/elements/1.1/"
   xmlns:cc="http://creativecommons.org/ns#"
   xmlns:rdf="http://www.w3.org/1999/02/22-rdf-syntax-ns#"
   xmlns:svg="http://www.w3.org/2000/svg"
   xmlns="http://www.w3.org/2000/svg"
   xmlns:sodipodi="http://sodipodi.sourceforge.net/DTD/sodipodi-0.dtd"
   xmlns:inkscape="http://www.inkscape.org/namespaces/inkscape"
   width="91.032425mm"
   height="69.054001mm"
   viewBox="0 0 91.032422 69.054004"
   version="1.1"
   id="svg8"
   sodipodi:docname="raccoon.svg"
   inkscape:version="0.92.4 (5da689c313, 2019-01-14)">
  <defs
     id="defs2" />
  <sodipodi:namedview
     id="base"
     pagecolor="#ffffff"
     bordercolor="#666666"
     borderopacity="1.0"
     inkscape:pageopacity="0.0"
     inkscape:pageshadow="2"
     inkscape:zoom="3.1969701"
     inkscape:cx="172.02978"
     inkscape:cy="131.33748"
     inkscape:document-units="mm"
     inkscape:current-layer="layer2"
     showgrid="false"
     inkscape:snap-bbox="false"
     inkscape:snap-global="false"
     inkscape:window-width="1920"
     inkscape:window-height="1001"
     inkscape:window-x="-9"
     inkscape:window-y="-9"
     inkscape:window-maximized="1" />
  <metadata
     id="metadata5">
    <rdf:RDF>
      <cc:Work
         rdf:about="">
        <dc:format>image/svg+xml</dc:format>
        <dc:type
           rdf:resource="http://purl.org/dc/dcmitype/StillImage" />
        <dc:title />
      </cc:Work>
    </rdf:RDF>
  </metadata>
  <g
     inkscape:label="Layer 1"
     inkscape:groupmode="layer"
     id="layer1"
     transform="translate(161.1235,-157.15323)"
     style="display:inline" />
  <g
     inkscape:groupmode="layer"
     id="layer4"
     inkscape:label="BackLegAndArm"
     transform="translate(-10.024103,-152.10204)"
     style="display:inline" />
  <g
     inkscape:groupmode="layer"
     id="layer2"
     inkscape:label="DinoBod"
     transform="translate(-10.024103,-152.10204)">
    <path
       style="fill:#000000;fill-opacity:1;stroke:none;stroke-width:0.17329115px;stroke-linecap:butt;stroke-linejoin:miter;stroke-opacity:1"
       d="m 39.374054,186.66758 -2.87655,7.1478 1.133187,0.43583 0.174336,1.56903 13.598235,2.58224 22.722891,0.0368 -0.32067,-4.71106 1.220352,0.0872 -0.871684,-2.70222 1.046021,-0.17434 0.08717,-2.26637 -12.029209,-10.46018 -20.746025,2.96372 z"
       id="path935"
       inkscape:connector-curvature="0"
       sodipodi:nodetypes="cccccccccccccc" />
    <path
       id="path888-1-4"
       style="fill:#000000;fill-opacity:1;stroke:none;stroke-width:0.17356405;stroke-linecap:butt;stroke-linejoin:miter;stroke-miterlimit:4;stroke-dasharray:none;stroke-opacity:1"
       d="m 72.672582,180.0711 0.364216,-0.39626 0.364222,-0.39627 -0.737077,-0.44978 -0.737071,-0.44977 -4.150611,-3.18219 -7.530872,8.06694 17.592604,3.0372 4.929316,2.98138 1.487752,1.75573 c 1.961032,0.0157 1.070268,-0.36397 0.308551,-1.80644 m 0.07248,-7.17183 -0.836953,-1.20108 -1.752105,-0.60816 0.194627,-0.59769 -4.234105,-0.89565 -5.506506,-0.26753 -1.977667,-0.18347 -1.574488,-0.0637 -0.864068,-4.85221 -0.513756,-0.21814 3.771767,16.5368 2.111082,-1.07884 5.003062,-1.2515 -2.718471,-5.08883 -0.646346,-0.0452 -0.646346,-0.0452 0.255041,-0.70515 4.749079,3.09751 5.772256,4.34242 1.20908,-3.47029"
       inkscape:connector-curvature="0"
       sodipodi:nodetypes="ccccccccccccccccccccccccccccccc" />
    <path
       style="fill:#000000;fill-opacity:1;stroke:none;stroke-width:0.33561838px;stroke-linecap:butt;stroke-linejoin:miter;stroke-opacity:1"
       d="m 40.701967,195.01397 -2.333027,5.86182 2.595812,2.8288 0.03044,1.31394 2.519446,1.12049 2.10461,2.18521 1.00191,-0.74056 1.993246,1.23205 2.041365,2.45469 0.554939,5.576 1.051908,3.86421 0.296402,0.1296 0.327438,0.31582 0.151572,-0.43938 0.161916,-0.27385 -0.44175,-1.90641 0.724738,1.88984 0.407124,0.0986 0.293328,0.3365 0.107117,-0.41868 0.282983,-0.2842 -0.669519,-1.99613 0.992544,1.94645 0.377775,0.0799 0.30536,0.43167 0.0157,-0.57181 0.191564,-0.28214 -0.859311,-2.15844 1.023204,1.58571 0.323165,0.0279 0.395581,0.21415 -0.06995,-0.42724 -0.01822,-0.32379 -1.602367,-3.45725 -0.573927,-4.15795 1.339041,-2.41026 6.69519,-2.00856 7.822236,-6.97333 z"
       id="path832"
       inkscape:connector-curvature="0"
       sodipodi:nodetypes="ccccccccccccccccccccccccccccccccccccccc" />
    <path
       style="fill:#000000;fill-opacity:1;stroke:none;stroke-width:0.2261077px;stroke-linecap:butt;stroke-linejoin:miter;stroke-opacity:1"
       d="m 60.599813,193.89823 0.710769,3.18465 3.293694,4.25871 4.733511,9.08289 1.088289,-1.22735 8.643405,6.40012 3.418558,-0.47692 1.446329,-2.23906 0.529705,-2.50052 -0.368754,-3.6284 -0.953821,-2.19451 -2.296878,-0.56425 -0.794866,-1.23841 -4.753114,-1.10338 -1.776057,-1.65653 -3.622589,-1.51542 -2.892158,-3.32537 -1.638495,-5.07905 z"
       id="path952"
       inkscape:connector-curvature="0"
       sodipodi:nodetypes="ccccccccccccccccccc" />
    <path
       style="fill:#000000;fill-opacity:1;stroke:none;stroke-width:0.26458332px;stroke-linecap:butt;stroke-linejoin:miter;stroke-opacity:1"
       d="m 68.379342,199.20211 5.289139,-1.41735 2.108227,-7.86644 0.272127,-0.0884 0.257497,-0.30785 0.169716,0.35051 0.213606,0.21886 -0.566734,2.68074 1.106223,-2.8347 0.283223,-0.0745 0.341743,-0.19155 0.06377,0.34977 0.210072,0.26196 -0.726217,2.84228 1.051223,-2.53643 0.33494,-0.10802 0.408091,-0.29824 0.02766,0.4479 0.217899,0.34551 -1.036662,2.69189 1.197876,-2.04615 0.381387,-0.11492 0.366756,-0.36363 -0.04289,0.5727 0.118044,0.32399 -1.394858,3.19498 -2.355219,4.79681 -1.244503,0.65682 -0.760529,-0.10371 -0.76053,-0.10371 z"
       id="path836"
       inkscape:connector-curvature="0"
       sodipodi:nodetypes="ccccccccccccccccccccccccccccccc" />
    <path
       style="fill:none;stroke:#ff004f;stroke-width:4;stroke-linecap:butt;stroke-linejoin:miter;stroke-miterlimit:4;stroke-dasharray:none;stroke-opacity:1"
       d="M 15.836756,197.43035 54.14634,167.52868 94.94457,197.43265 Z"
       id="path929"
       inkscape:connector-curvature="0" />
    <path
       id="path888-1"
       style="fill:#000000;fill-opacity:1;stroke:none;stroke-width:0.17356405;stroke-linecap:butt;stroke-linejoin:miter;stroke-miterlimit:4;stroke-dasharray:none;stroke-opacity:1"
       d="m 33.519662,182.21037 -0.53736,-0.0305 -0.537356,-0.0305 0.215427,-0.83616 0.215424,-0.83617 5.119049,-4.12847 4.836735,9.58312 -9.029151,7.78395 -1.582188,0.93436 0.695391,0.52572 0.695391,1.06349 -0.161933,0.32318 -0.0617,0.42884 -0.41773,-0.30102 -0.490344,-0.0225 -0.618375,-1.01373 -0.819155,-0.37464 -0.07409,1.0908 -0.195647,3.0633 -0.351878,0.19394 -0.216565,0.35444 -0.227919,-0.34678 -0.438302,-0.0826 -0.06776,-1.53116 0.0409,-1.52326 -0.644381,1.656 -0.02722,1.37499 -0.368657,0.18739 -0.240503,0.41077 -0.263465,-0.4255 -0.394584,-0.14967 -0.05118,-1.42527 0.384631,-1.4958 -0.910269,1.63144 -0.03679,1.34147 -0.49608,0.12826 -0.199274,0.365 -0.22249,-0.35918 -0.375087,-0.17429 0.01193,-1.69128 0.647487,-1.00684 -0.844119,1.06895 -0.159678,1.3134 -0.324608,0.1325 -0.301392,0.43965 -0.209546,-0.4944 -0.2209,-0.20455 0.165772,-1.69127 1.113764,-1.32922 1.494197,-1.06956 m 0.155354,0.12828 -1.182509,-1.24449 0.311751,-1.9424 -0.279173,-1.10529 0.87608,-1.99637 -0.556016,-0.29319 2.413513,-3.59232 3.763916,-4.02816 1.444908,-1.94274 1.858224,-1.51949 2.675727,-2.31378 c 1.632199,1.79593 -1.746785,8.89718 -0.126773,12.71551 l -2.534392,1.17809 0.275334,-2.23263 -3.268068,-0.90331 0.43219,-0.48272 0.43219,-0.48272 -0.674219,-0.32819 3.161185,-2.76888 -2.438428,1.6057 -0.259227,-1.27085"
       inkscape:connector-curvature="0"
       sodipodi:nodetypes="ccccccccccccccccccccccccccccccccccccccccccccccccccccccccccccccccccccccc" />
    <path
       style="fill:none;fill-opacity:1;stroke:#ff004f;stroke-width:4;stroke-linecap:butt;stroke-linejoin:miter;stroke-miterlimit:4;stroke-dasharray:none;stroke-opacity:1"
       d="m 54.537119,184.20596 -19.054226,-29.34668 19.329821,3.36669 20.201503,-3.25803 z"
       id="path933"
       inkscape:connector-curvature="0"
       sodipodi:nodetypes="ccccc" />
    <path
       id="path888"
       style="fill:#000000;fill-opacity:1;stroke:none;stroke-width:0.14073704;stroke-linecap:butt;stroke-linejoin:miter;stroke-miterlimit:4;stroke-dasharray:none;stroke-opacity:1"
       d="m 39.353183,171.67079 -0.742157,-0.45943 0.954202,-1.02488 2.544539,-3.39273 -1.979087,-0.35341 1.908405,-0.42408 -2.403175,-1.97909 2.473857,0.56546 -0.07068,-3.53409 0.494771,-2.12045 h 1.908406 l 3.322034,1.69636 0.494772,0.49477 1.625679,-0.56545 4.028852,0.14136 0.777498,0.42409 0.777498,-0.28272 4.73567,0.28272 1.060224,0.84819 3.604766,-2.04977 3.039308,-0.35341 0.706818,2.47386 -0.424092,1.07789 -0.918859,2.13812 1.555001,0.65381 -1.908404,0.44176 1.97908,1.48431 H 66.70698 l 0.494768,2.40317 1.696361,1.69637 -0.777495,0.35341 1.41363,1.62567 -0.848184,0.49477 0.353409,1.20159 -1.696354,0.84818 0.918859,2.12045 -2.756582,0.14136 1.908404,1.76704 -0.494767,0.35341 2.332489,2.19113 -0.636135,0.35341 m 0.07069,-0.0707 -13.055099,6.31727 -14.636543,-2.60242 -6.588954,-8.09711 4.099534,-2.75659 -1.060225,-2.12045 0.989543,-0.3534 -0.706815,-0.98955 2.049766,-0.98954"
       inkscape:connector-curvature="0"
       sodipodi:nodetypes="cccccccccccccccccccccccccccccccccccccccccccccccccc" />
    <path
       id="path888-1-9"
       style="fill:#000000;fill-opacity:1;stroke:none;stroke-width:0.17356405;stroke-linecap:butt;stroke-linejoin:miter;stroke-miterlimit:4;stroke-dasharray:none;stroke-opacity:1"
       d="m 85.051851,185.14604 -4.079325,-2.184 -0.05351,1.31607 -0.82832,0.27174 -1.002748,0.78044 0.04834,0.35823 -0.08074,0.42566 0.492784,-0.14924 0.471138,0.13773 0.913753,-0.75835 0.89639,-0.0887 -0.283729,1.05585 -0.808533,2.96114 0.269941,0.29759 0.08989,0.40553 0.328082,-0.25411 0.441403,0.064 0.560742,-1.4264 0.455426,-1.45415 0.0724,1.77547 -0.420215,1.30949 0.287946,0.29683 0.09426,0.46658 0.387238,-0.31704 0.4218,-0.0136 0.510684,-1.33162 0.121344,-1.53969 0.331881,1.83849 -0.400304,1.28088 0.427655,0.28224 0.07011,0.4099 0.326969,-0.26759 0.411333,-0.0432 0.537309,-1.60371 -0.285903,-1.16242 0.451751,1.28496 -0.274964,1.29418 0.264079,0.23063 0.142499,0.51364 0.358577,-0.39971 0.275306,-0.12184 0.39177,-1.6536 -0.622401,-1.61862 -1.066495,-1.49638"
       inkscape:connector-curvature="0"
       sodipodi:nodetypes="cccccccccccccccccccccccccccccccccccccccccccc" />
    <path
       style="fill:#280b0b;stroke:#ff004f;stroke-width:5;stroke-linecap:butt;stroke-linejoin:miter;stroke-miterlimit:4;stroke-dasharray:none;stroke-opacity:1"
       d="m 55.542461,197.53764 -0.248283,18.7039"
       id="path838"
       inkscape:connector-curvature="0" />
    <path
       style="fill:#000000;fill-opacity:1;stroke:none;stroke-width:0.26458332px;stroke-linecap:butt;stroke-linejoin:miter;stroke-opacity:1"
       d="m 55.573498,217.08984 -0.475874,-6.45533 0.16552,-1.09658 -0.951746,-1.36555 -1.510382,-1.34486 -0.227592,10.44853 z"
       id="path840"
       inkscape:connector-curvature="0" />
  </g>
  <g
     inkscape:groupmode="layer"
     id="layer5"
     inkscape:label="DinoBod 1"
     transform="translate(37.442222,0.03404212)" />
  <g
     inkscape:groupmode="layer"
     id="layer3"
     inkscape:label="LegsAndArms"
     transform="translate(-10.024103,-152.10204)" />
</svg>
