<?xml version="1.0" encoding="UTF-8" standalone="no"?>
<!-- Created with Inkscape (http://www.inkscape.org/) -->

<svg
   xmlns:dc="http://purl.org/dc/elements/1.1/"
   xmlns:cc="http://creativecommons.org/ns#"
   xmlns:rdf="http://www.w3.org/1999/02/22-rdf-syntax-ns#"
   xmlns:svg="http://www.w3.org/2000/svg"
   xmlns="http://www.w3.org/2000/svg"
   xmlns:sodipodi="http://sodipodi.sourceforge.net/DTD/sodipodi-0.dtd"
   xmlns:inkscape="http://www.inkscape.org/namespaces/inkscape"
   width="73.192764mm"
   height="70.865082mm"
   viewBox="0 0 73.192763 70.865084"
   version="1.1"
   id="svg8"
   sodipodi:docname="Black_Wax.svg"
   inkscape:version="0.92.4 (5da689c313, 2019-01-14)">
  <defs
     id="defs2" />
  <sodipodi:namedview
     id="base"
     pagecolor="#ffffff"
     bordercolor="#666666"
     borderopacity="1.0"
     inkscape:pageopacity="0.0"
     inkscape:pageshadow="2"
     inkscape:zoom="2.4371065"
     inkscape:cx="138.08294"
     inkscape:cy="149.53002"
     inkscape:document-units="mm"
     inkscape:current-layer="layer2"
     showgrid="false"
     inkscape:snap-bbox="true"
     inkscape:snap-global="false"
     inkscape:window-width="1920"
     inkscape:window-height="1001"
     inkscape:window-x="-9"
     inkscape:window-y="-9"
     inkscape:window-maximized="1" />
  <metadata
     id="metadata5">
    <rdf:RDF>
      <cc:Work
         rdf:about="">
        <dc:format>image/svg+xml</dc:format>
        <dc:type
           rdf:resource="http://purl.org/dc/dcmitype/StillImage" />
        <dc:title />
      </cc:Work>
    </rdf:RDF>
  </metadata>
  <g
     inkscape:label="Layer 1"
     inkscape:groupmode="layer"
     id="layer1"
     transform="translate(142.25251,-153.01712)"
     style="display:inline" />
  <g
     inkscape:groupmode="layer"
     id="layer2"
     inkscape:label="DinoBod"
     transform="translate(-28.895095,-147.96593)"
     style="display:inline">
    <circle
       style="opacity:1;fill:#000000;fill-opacity:1;stroke:none;stroke-width:1.50784075;stroke-linejoin:miter;stroke-miterlimit:4;stroke-dasharray:none;stroke-opacity:1"
       id="path1426"
       cx="65.429543"
       cy="181.89235"
       r="33.926418" />
    <path
       style="fill:#ffffff;stroke-width:0.08351927"
       d="m 65.071885,167.62474 c -2.20625,0.0562 -4.369404,0.62322 -6.319529,1.6565 0.154579,0.0731 0.321674,0.15314 0.534539,0.25752 1.070779,0.31929 3.192113,2.08499 4.014462,0.92601 0.0017,-0.0721 0.784446,-1.33925 0.981074,-1.58757 0.03641,-0.046 0.173875,-0.27148 0.305637,-0.50115 0.12141,-0.21166 0.327861,-0.53041 0.483817,-0.75131 z m 1.161846,0.0278 c -0.55719,1.08755 -1.445151,2.1148 -1.973406,3.01993 -0.04673,0.21523 -0.28417,0.4423 -0.292198,0.71748 1.088205,1.69587 3.475235,1.29799 3.552752,3.49987 0.01418,0.48444 -0.0067,0.99278 -0.04555,1.12934 -0.03918,0.13655 -0.04992,0.45502 -0.02383,0.70796 -0.4638,2.14226 1.204698,-0.50435 1.629623,-1.09007 0.193741,-0.2706 1.578708,-2.12994 1.73948,-2.32142 1.377248,-1.90682 2.57812,-2.68686 1.333372,-4.0131 -1.830193,-0.97337 -3.850428,-1.53641 -5.920243,-1.65 z m -8.40869,2.16069 c -4.148918,2.6119 -6.667089,7.17027 -6.669382,12.07287 7e-6,7.88325 6.390637,14.27387 14.273877,14.27388 0.317047,-5.7e-4 0.633994,-0.0118 0.950294,-0.0334 1.381124,-0.43452 1.515587,-0.57413 1.480495,-1.83946 -0.0076,-0.23072 -0.06921,-0.44549 -0.156502,-0.54191 -0.07953,-0.0878 -0.144362,-0.18765 -0.144362,-0.22195 -1.647114,-2.89083 -3.214228,-5.84315 -4.893641,-8.72992 -0.225545,-0.38732 -0.410747,-0.72565 -0.411418,-0.75174 -7.05e-4,-0.0261 -0.03775,-0.1041 -0.08238,-0.17297 -0.04463,-0.0689 -0.16021,-0.27117 -0.256645,-0.44958 -0.33625,-0.62207 -1.075629,-1.54555 -1.368641,-1.70896 -1.526412,-0.65474 -3.096845,-0.90118 -4.509553,-1.99307 0.232629,-0.20404 0.572991,-0.1903 0.888296,-0.23974 0.495663,-0.078 1.033307,-0.36961 1.126739,-0.61126 0.137956,-0.35682 0.03376,-0.91013 -0.221533,-1.1766 -0.204512,-0.17407 -0.261043,-0.41694 -0.339017,-0.62341 -0.208935,-0.50005 -0.123751,-0.9646 0.176877,-0.9646 0.05395,0 0.510841,0.4082 1.015321,0.90738 0.674411,0.66731 1.058838,0.97746 1.452753,1.17138 0.693699,0.34152 0.874681,0.37906 1.826879,0.37847 2.056804,-0.11849 4.550302,-0.44404 4.686862,-2.15799 0.07072,-0.56789 0.199019,-1.19039 0.224136,-1.68219 -0.03331,-1.27626 -2.655335,-2.21684 -3.845386,-2.62629 -1.561216,-0.66547 -3.242175,-1.47449 -4.823859,-2.13598 -0.05341,-0.0101 -0.199074,-0.067 -0.380203,-0.14306 z m 15.918245,1.07212 c -0.01669,0.002 -0.02995,0.009 -0.04119,0.02 -0.0328,0.0329 -0.101057,0.0598 -0.151737,0.0598 -3.047995,3.35584 -4.986677,6.84356 -7.393372,9.80162 -0.53219,0.65116 -0.594388,0.94164 -0.272248,1.27197 1.358976,0.62755 2.421543,1.30683 3.762575,1.75664 0.568641,0.18284 0.621586,0.18505 0.905638,0.0382 0.993347,-1.14506 7.908095,-7.08266 7.489228,-8.19127 0.640679,-1.00321 -1.227542,-2.87769 -1.639623,-3.25179 -0.96734,-0.94034 -2.220251,-1.70985 -2.337273,-1.6983 z m 4.869379,5.55998 c -1.775352,2.67227 -6.061518,5.52622 -7.12328,7.87025 -0.168272,0.44259 -0.10781,0.53188 1.130202,1.67299 0.43807,0.3604 0.673087,0.89614 1.05651,1.27934 0.365268,0.25949 0.713062,0.22777 1.115897,-0.10232 1.550898,-1.29064 3.177517,-2.67117 4.753624,-3.95377 0.05419,-0.044 0.04404,-0.0371 0.09538,-0.0789 0.03901,-0.4145 0.05982,-0.8305 0.06242,-1.24682 -0.0042,-1.86748 -0.374757,-3.716 -1.090755,-5.44077 z m -11.709588,1.9975 c -1.143742,0.11997 -0.443121,0.0748 -3.604489,0.69878 -0.840897,0.17441 -2.741636,0.16705 -3.500127,-0.03 -0.663623,-0.17234 -0.925145,-0.12916 -0.925145,0.15348 0,0.17115 0.176416,0.3439 0.542775,0.53105 0.596911,0.30495 2.373605,0.99607 2.839603,1.10464 0.393037,0.14232 0.780872,0.18284 1.147114,0.33732 0.37156,0.0697 1.441787,0.39435 1.72042,0.15981 0.562139,-0.94201 1.965444,-2.4278 1.779849,-2.95514 z m -3.578314,3.93879 c -0.09474,0.004 -0.181393,0.0124 -0.273985,0.0252 -0.388733,0.0534 -0.41922,0.0746 -0.41922,0.29003 2.713851,4.24164 3.783817,7.60243 6.331972,11.44639 0.455578,0.68725 1.404471,1.29613 2.20864,1.11392 4.396821,-0.99617 7.319464,-5.72784 8.271569,-10.70051 -0.0034,0.002 -0.0059,0.003 -0.0091,0.005 -1.437248,0.86619 -2.95906,2.50902 -4.667785,3.43179 -0.147014,0.0743 -0.387131,0.13483 -0.533675,0.13483 -0.316468,0 -0.996569,-0.32074 -1.059538,-0.49985 -1.050218,-0.98644 -2.070755,-2.46095 -3.18599,-3.06851 -0.542853,-0.30058 -1.154757,-0.52759 -1.680789,-0.75434 -1.241233,-0.43031 -2.293238,-1.16063 -3.528909,-1.31231 -0.811728,-0.0926 -1.168952,-0.12326 -1.45318,-0.11141 z"
       id="path1439-2"
       inkscape:connector-curvature="0"
       sodipodi:nodetypes="cccccccccccccccccccccccccccscccccccscccccccccccccccccccccccccccccccccsccccccccsacccscccccc" />
    <path
       style="fill:#552200;stroke-width:0.07085539"
       d="m 59.286028,215.00276 c 0,0 -3.511266,-2.07214 -3.655966,-3.17716 -0.0448,-0.34183 -0.066,-0.63624 -0.0475,-0.65474 0.009,-0.009 0.0554,-0.006 0.12196,0.006 l -0.25994,-0.0631 -0.0858,-0.3576 c -0.0472,-0.19672 -0.11246,-0.54855 -0.14521,-0.78238 -0.19419,-1.38642 -0.31536,-1.8127 -0.93638,-3.29489 -0.26719,-0.63772 -1.58161,-3.14149 -1.99988,-3.80907 -0.21355,-0.34085 -0.48944,-0.81106 -0.61288,-1.04489 -0.12343,-0.23382 -0.38939,-0.6038 -0.59118,-0.82218 -0.22372,-0.24212 -0.47579,-0.62845 -0.64595,-0.99012 -0.15347,-0.32622 -0.51634,-0.91258 -0.80667,-1.30328 -0.79435,-1.06894 -1.23628,-1.95854 -1.46089,-2.94245 -0.45045,-1.97315 -0.55034,-2.33857 -0.80667,-2.94039 -0.14938,-0.35073 -0.38284,-0.92464 -0.51832,-1.27538 -0.46146,-1.19459 -1.05802,-2.16059 -1.58491,-2.56573 -0.14151,-0.10882 -0.41877,-0.33788 -0.61599,-0.50901 -0.065,-0.0564 -0.12788,-0.10715 -0.18965,-0.15452 0.0145,0.0217 0.0218,0.0422 0.0181,0.0594 -0.01,0.0454 0.0251,0.0822 0.0775,0.0822 0.0524,0 0.15326,0.0637 0.22376,0.14159 v 5.3e-4 c 0.16712,0.18471 -0.17828,-0.0238 -0.17828,-0.0238 -0.76778,-0.17087 -1.50804,-0.43811 -2.69682,0.86451 0,0 -0.0918,0.60273 -0.13178,0.75861 -0.11157,0.43535 -0.0893,1.6183 0.0434,2.31045 0.0656,0.34223 0.14484,0.60644 0.17622,0.58704 0.0314,-0.0194 0.0398,0.0102 0.0186,0.0651 -0.0521,0.13575 0.33893,1.71434 0.60875,2.45773 0.12023,0.33125 0.25048,0.70692 0.28939,0.83457 0.0389,0.12765 0.0927,0.2183 0.11988,0.20154 0.0271,-0.0168 0.0542,0.038 0.06,0.12196 0.006,0.084 0.14212,0.52477 0.30334,0.97926 0.31135,0.87774 0.4285,1.58348 0.42943,2.58641 5.3e-4,0.602 -0.0426,0.82855 -0.14573,0.76481 -0.0333,-0.0206 -0.11728,-0.005 -0.18707,0.0341 -0.0698,0.0393 -0.25443,0.12071 -0.41031,0.18087 l -0.2837,0.10955 0.23203,-0.185 c 0.22323,-0.17795 0.27124,-0.36302 0.12247,-0.47232 -0.0418,-0.0307 -0.0276,-0.0535 0.0351,-0.0558 0.0585,-0.002 -5.3e-4,-0.0505 -0.13178,-0.10749 -0.16464,-0.0715 -0.50484,-0.10391 -1.09864,-0.10542 -0.47291,-0.001 -1.09884,-0.0361 -1.39112,-0.0775 -0.29228,-0.0414 -0.61889,-0.0782 -0.72606,-0.0816 -0.10716,-0.003 -0.19482,-0.034 -0.19482,-0.0682 0,-0.0342 -0.0352,-0.0405 -0.078,-0.0139 -0.0542,0.0335 -0.0531,0.002 0.003,-0.10387 0.0447,-0.0834 0.0588,-0.18784 0.0315,-0.23203 -0.0319,-0.0516 -0.018,-0.0607 0.0393,-0.0253 0.0491,0.0303 0.0344,-0.0284 -0.0326,-0.13074 -0.13988,-0.21349 -0.19279,-0.24056 -0.12506,-0.0641 0.0413,0.10759 0.034,0.10967 -0.0641,0.0181 -0.061,-0.057 -0.0976,-0.13871 -0.0811,-0.1819 0.0908,-0.23651 -1.1554,-1.64 -1.37976,-1.55391 -0.0509,0.0195 -0.0756,0.008 -0.0548,-0.0258 0.0565,-0.0914 -0.50307,-0.4557 -0.6041,-0.39325 -0.0553,0.0342 -0.0673,0.0231 -0.0341,-0.0305 0.0338,-0.0547 -0.0908,-0.14798 -0.36122,-0.2713 -0.48862,-0.22276 -0.55505,-0.2991 -0.66611,-0.76532 -0.20636,-0.86628 -0.43282,-1.2837 -1.77767,-3.2737 -0.5008,-0.74104 -0.54598,-0.86676 -0.84388,-2.35387 -0.14016,-0.69969 -0.60344,-2.39705 -0.90278,-3.30781 -0.0755,-0.22969 -0.15481,-0.60075 -0.17622,-0.82475 -0.0214,-0.22399 -0.10289,-0.70243 -0.18087,-1.06299 -0.078,-0.36055 -0.18817,-0.91293 -0.24495,-1.22783 -0.0818,-0.45358 -0.19117,-0.73321 -0.52813,-1.34617 -0.23393,-0.42555 -0.49041,-0.76068 -0.49041,-0.76068 -0.64663,-0.56657 -1.28844,-1.18143 -2.07587,-0.34001 0,0 -0.0253,0.28577 -0.0558,0.28577 -0.0305,0 -0.0515,1.10765 -0.0465,2.46187 0.007,1.97171 0.0309,2.54724 0.11886,2.88768 0.0604,0.23382 0.16331,0.7279 0.22841,1.09812 0.0651,0.37021 0.16231,0.89613 0.21601,1.16892 0.12338,0.62693 0.18616,1.32122 0.19016,2.09032 0.004,0.72533 0.10919,1.82363 0.19379,2.01951 0.16397,0.37949 0.53454,1.13752 0.57154,1.16892 0.0229,0.0195 0.0488,0.12859 0.0569,0.24236 0.008,0.11378 0.0352,0.22545 0.0599,0.24805 0.0251,0.0226 0.0292,-0.0463 0.01,-0.15348 -0.0195,-0.10715 -0.008,-0.19482 0.0259,-0.19482 0.0335,0 0.061,0.12731 0.061,0.28319 0,0.15588 0.0318,0.2837 0.0708,0.2837 0.0389,0 0.0713,-0.0558 0.0718,-0.12402 7.9e-4,-0.1042 0.0117,-0.10734 0.0672,-0.0196 0.0361,0.0574 0.0386,0.12089 0.005,0.14159 -0.081,0.0501 0.13785,1.1382 0.28887,1.43557 0.0344,0.0677 0.0625,0.17406 0.0625,0.23616 0,0.0621 0.0756,0.30937 0.16795,0.54984 0.0923,0.24047 0.23251,0.62866 0.31161,0.86248 0.0791,0.23382 0.34194,0.87138 0.58394,1.41697 0.42105,0.94928 0.77876,1.93087 0.77876,2.13578 0,0.053 0.024,0.0961 0.0532,0.0961 0.0292,0 0.0559,0.072 0.0589,0.15968 0.03,0.81175 0.47305,2.91785 0.709,3.37086 0.19941,0.38287 0.9865,1.23679 1.61282,1.74976 0.18919,0.15493 0.38662,0.32182 0.43822,0.37052 0.0516,0.0487 0.12531,0.0884 0.16381,0.0884 0.0385,0 0.0805,0.024 0.0935,0.0532 0.0205,0.0461 0.71667,0.66652 1.26194,1.12448 2.80971,2.5527 4.00598,3.35272 6.55636,6.28768 0.0392,0.0447 0.1957,0.24731 0.3483,0.4501 0.1526,0.2028 0.30703,0.35044 0.34313,0.32814 0.0361,-0.0223 0.0548,0.0159 0.0413,0.0848 -0.0135,0.0689 0.08,0.23988 0.20826,0.37983 0.12827,0.13994 0.25093,0.32407 0.27233,0.40927 0.0214,0.0852 0.0783,0.17002 0.12661,0.18862 0.10343,0.0397 0.42891,1.15135 0.42891,1.15135 z"
       id="path1813"
       inkscape:connector-curvature="0"
       sodipodi:nodetypes="ccscccccccccccccccccsccccccccsccccccccccccccscscccccccccccccscccccccccsccccccccccsssccccscscsscccssccccsscsccc" />
    <path
       style="display:inline;fill:#552200;stroke-width:0.07085539"
       d="m 71.696916,214.97249 c 0,0 3.511267,-2.07214 3.655967,-3.17716 0.0448,-0.34183 0.066,-0.63624 0.0475,-0.65474 -0.009,-0.009 -0.0554,-0.006 -0.121959,0.006 l 0.259939,-0.0631 0.0858,-0.3576 c 0.0472,-0.19672 0.112459,-0.54855 0.145209,-0.78238 0.19419,-1.38642 0.31536,-1.8127 0.93638,-3.29489 0.26719,-0.63772 1.58161,-3.14149 1.99988,-3.80907 0.21355,-0.34085 0.48944,-0.81106 0.61288,-1.04489 0.12343,-0.23382 0.38939,-0.6038 0.59118,-0.82218 0.22372,-0.24212 0.47579,-0.62845 0.64595,-0.99012 0.15347,-0.32622 0.51634,-0.91258 0.80667,-1.30328 0.79435,-1.06894 1.23628,-1.95854 1.46089,-2.94245 0.45045,-1.97315 0.55034,-2.33857 0.80667,-2.94039 0.14938,-0.35073 0.38284,-0.92464 0.51832,-1.27538 0.46146,-1.19459 1.05802,-2.16059 1.58491,-2.56573 0.14151,-0.10882 0.41877,-0.33788 0.61599,-0.50901 0.065,-0.0564 0.12788,-0.10715 0.18965,-0.15452 -0.0145,0.0217 -0.0218,0.0422 -0.0181,0.0594 0.01,0.0454 -0.0251,0.0822 -0.0775,0.0822 -0.0524,0 -0.15326,0.0637 -0.22376,0.14159 v 5.3e-4 c -0.16712,0.18471 0.17828,-0.0238 0.17828,-0.0238 0.76778,-0.17087 1.50804,-0.43811 2.69682,0.86451 0,0 0.0918,0.60273 0.13178,0.75861 0.11157,0.43535 0.0893,1.6183 -0.0434,2.31045 -0.0656,0.34223 -0.14484,0.60644 -0.17622,0.58704 -0.0314,-0.0194 -0.0398,0.0102 -0.0186,0.0651 0.0521,0.13575 -0.33893,1.71434 -0.60875,2.45773 -0.12023,0.33125 -0.25048,0.70692 -0.28939,0.83457 -0.0389,0.12765 -0.0927,0.2183 -0.11988,0.20154 -0.0271,-0.0168 -0.0542,0.038 -0.06,0.12196 -0.006,0.084 -0.14212,0.52477 -0.30334,0.97926 -0.31135,0.87774 -0.4285,1.58348 -0.42943,2.58641 -5.29e-4,0.602 0.0426,0.82855 0.14573,0.76481 0.0333,-0.0206 0.11728,-0.005 0.18707,0.0341 0.0698,0.0393 0.25443,0.12071 0.41031,0.18087 l 0.2837,0.10955 -0.23203,-0.185 c -0.22323,-0.17795 -0.27124,-0.36302 -0.12247,-0.47232 0.0418,-0.0307 0.0276,-0.0535 -0.0351,-0.0558 -0.0585,-0.002 5.29e-4,-0.0505 0.13178,-0.10749 0.16464,-0.0715 0.50484,-0.10391 1.09864,-0.10542 0.47291,-0.001 1.09884,-0.0361 1.39112,-0.0775 0.29228,-0.0414 0.61889,-0.0782 0.72606,-0.0816 0.10716,-0.003 0.19482,-0.034 0.19482,-0.0682 0,-0.0342 0.0352,-0.0405 0.078,-0.0139 0.0542,0.0335 0.0531,0.002 -0.003,-0.10387 -0.0447,-0.0834 -0.0588,-0.18784 -0.0315,-0.23203 0.0319,-0.0516 0.018,-0.0607 -0.0393,-0.0253 -0.0491,0.0303 -0.0344,-0.0284 0.0326,-0.13074 0.13988,-0.21349 0.19279,-0.24056 0.12506,-0.0641 -0.0413,0.10759 -0.034,0.10967 0.0641,0.0181 0.061,-0.057 0.0976,-0.13871 0.0811,-0.1819 -0.0908,-0.23651 1.1554,-1.64 1.37976,-1.55391 0.0509,0.0195 0.0756,0.008 0.0548,-0.0258 -0.0565,-0.0914 0.50307,-0.4557 0.6041,-0.39325 0.0553,0.0342 0.0673,0.0231 0.0341,-0.0305 -0.0338,-0.0547 0.0908,-0.14798 0.36122,-0.2713 0.48862,-0.22277 0.55505,-0.29911 0.66611,-0.76533 0.20636,-0.86628 0.43282,-1.2837 1.777669,-3.2737 0.500797,-0.74104 0.545977,-0.86676 0.843884,-2.35387 0.14016,-0.69969 0.603437,-2.39705 0.902777,-3.30781 0.0755,-0.22969 0.154807,-0.60075 0.176217,-0.82475 0.0214,-0.22399 0.10289,-0.70243 0.18087,-1.06299 0.078,-0.36055 0.18817,-0.91293 0.24495,-1.22783 0.0818,-0.45358 0.191177,-0.73321 0.528137,-1.34617 0.233927,-0.42555 0.490407,-0.76068 0.490407,-0.76068 0.646627,-0.56657 1.288447,-1.18143 2.075877,-0.34001 0,0 0.0253,0.28577 0.0558,0.28577 0.0305,0 0.0515,1.10765 0.0465,2.46187 -0.007,1.97171 -0.0309,2.54724 -0.11886,2.88768 -0.0604,0.23382 -0.16331,0.7279 -0.22841,1.09812 -0.0651,0.37021 -0.16231,0.89613 -0.21601,1.16892 -0.12338,0.62693 -0.18616,1.32122 -0.19016,2.09032 -0.004,0.72533 -0.10919,1.82363 -0.19379,2.01951 -0.16398,0.37949 -0.53455,1.13752 -0.57155,1.16892 -0.0229,0.0195 -0.0488,0.12859 -0.0569,0.24236 -0.008,0.11378 -0.0352,0.22545 -0.0599,0.24805 -0.0251,0.0226 -0.0292,-0.0463 -0.01,-0.15348 0.0195,-0.10715 0.008,-0.19482 -0.0259,-0.19482 -0.0335,0 -0.061,0.12731 -0.061,0.28319 0,0.15588 -0.0318,0.2837 -0.0708,0.2837 -0.0389,0 -0.0713,-0.0558 -0.0718,-0.12402 -7.9e-4,-0.1042 -0.0117,-0.10734 -0.0672,-0.0196 -0.0361,0.0574 -0.0386,0.12089 -0.005,0.14159 0.081,0.0501 -0.13785,1.1382 -0.288877,1.43557 -0.0344,0.0677 -0.0625,0.17406 -0.0625,0.23616 0,0.0621 -0.0756,0.30937 -0.16795,0.54984 -0.0923,0.24047 -0.232507,0.62866 -0.311607,0.86248 -0.0791,0.23382 -0.34194,0.87138 -0.583937,1.41697 -0.421057,0.94928 -0.778767,1.93087 -0.778767,2.13578 0,0.053 -0.024,0.0961 -0.0532,0.0961 -0.0292,0 -0.0559,0.072 -0.0589,0.15968 -0.03,0.81175 -0.47305,2.91785 -0.709007,3.37086 -0.19941,0.38287 -0.986496,1.23679 -1.612815,1.74976 -0.189191,0.15493 -0.386621,0.32182 -0.438221,0.37052 -0.0516,0.0487 -0.12531,0.0884 -0.16381,0.0884 -0.0385,0 -0.0805,0.024 -0.0935,0.0532 -0.0205,0.0461 -0.71667,0.66652 -1.26194,1.12448 -2.80971,2.5527 -4.00598,3.35272 -6.55636,6.28768 -0.0392,0.0447 -0.1957,0.24731 -0.3483,0.4501 -0.1526,0.2028 -0.30703,0.35044 -0.34313,0.32814 -0.0361,-0.0223 -0.0548,0.0159 -0.0413,0.0848 0.0135,0.0689 -0.08,0.23988 -0.20826,0.37983 -0.12827,0.13994 -0.25093,0.32407 -0.27233,0.40927 -0.0214,0.0852 -0.0783,0.17002 -0.12661,0.18862 -0.10343,0.0397 -0.42891,1.15135 -0.42891,1.15135 z"
       id="path1813-2"
       inkscape:connector-curvature="0"
       sodipodi:nodetypes="ccscccccccccccccccccsccccccccsccccccccccccccscscccccccccccccscccccccccsccccccccccsssccccscscsscccssccccsscsccc" />
  </g>
  <g
     inkscape:groupmode="layer"
     id="layer3"
     inkscape:label="LegsAndArms"
     transform="translate(-28.895095,-147.96593)" />
</svg>
