<?xml version="1.0" encoding="UTF-8" standalone="no"?>
<!-- Created with Inkscape (http://www.inkscape.org/) -->

<svg
   xmlns:dc="http://purl.org/dc/elements/1.1/"
   xmlns:cc="http://creativecommons.org/ns#"
   xmlns:rdf="http://www.w3.org/1999/02/22-rdf-syntax-ns#"
   xmlns:svg="http://www.w3.org/2000/svg"
   xmlns="http://www.w3.org/2000/svg"
   xmlns:sodipodi="http://sodipodi.sourceforge.net/DTD/sodipodi-0.dtd"
   xmlns:inkscape="http://www.inkscape.org/namespaces/inkscape"
   width="73.192764mm"
   height="70.865082mm"
   viewBox="0 0 73.192763 70.865084"
   version="1.1"
   id="svg8"
   sodipodi:docname="DJ.svg"
   inkscape:version="0.92.4 (5da689c313, 2019-01-14)">
  <defs
     id="defs2" />
  <sodipodi:namedview
     id="base"
     pagecolor="#ffffff"
     bordercolor="#666666"
     borderopacity="1.0"
     inkscape:pageopacity="0.0"
     inkscape:pageshadow="2"
     inkscape:zoom="3.0951715"
     inkscape:cx="134.81207"
     inkscape:cy="114.51217"
     inkscape:document-units="mm"
     inkscape:current-layer="layer2"
     showgrid="false"
     inkscape:snap-bbox="true"
     inkscape:snap-global="false"
     inkscape:window-width="1920"
     inkscape:window-height="1001"
     inkscape:window-x="-9"
     inkscape:window-y="-9"
     inkscape:window-maximized="1"
     showguides="false" />
  <metadata
     id="metadata5">
    <rdf:RDF>
      <cc:Work
         rdf:about="">
        <dc:format>image/svg+xml</dc:format>
        <dc:type
           rdf:resource="http://purl.org/dc/dcmitype/StillImage" />
        <dc:title />
      </cc:Work>
    </rdf:RDF>
  </metadata>
  <g
     inkscape:label="Layer 1"
     inkscape:groupmode="layer"
     id="layer1"
     transform="translate(142.25251,-153.01712)"
     style="display:inline" />
  <g
     inkscape:groupmode="layer"
     id="layer2"
     inkscape:label="DinoBod"
     transform="translate(-28.895095,-147.96593)"
     style="display:inline">
    <ellipse
       style="opacity:1;fill:#000000;fill-opacity:1;stroke:none;stroke-width:1.59026718;stroke-linejoin:miter;stroke-miterlimit:4;stroke-dasharray:none;stroke-opacity:1"
       id="path1426"
       cx="65.491478"
       cy="183.39847"
       rx="36.362675"
       ry="35.20866" />
    <path
       style="fill:#3dff6a;fill-opacity:1;stroke:none;stroke-width:0.26458332px;stroke-linecap:butt;stroke-linejoin:miter;stroke-opacity:1"
       d="m 54.197947,162.24153 c 0,0 0.409481,7.43267 1.709651,11.19822 0.843821,2.44387 3.675753,7.26602 3.675753,7.26602 0,0 -1.977407,2.92801 -2.137066,4.61606 -0.132751,1.40355 1.025792,4.10317 1.025792,4.10317 0,0 -5.31977,3.25472 -6.667643,5.8983 -0.403107,0.79061 -0.432734,1.7802 -0.256448,2.64996 0.154494,0.76224 1.111274,2.05158 1.111274,2.05158 l -2.478996,1.11127 c 0,0 -0.411029,2.19905 0.256448,2.90641 1.008067,1.0683 1.221774,0.44855 3.149563,0.50204 1.92779,0.0535 5.569663,0.7802 5.569663,0.7802 l 2.906408,1.11128 0.769345,-0.85483 2.137063,1.02579 0.940311,-1.19676 -0.170966,-0.76934 0.683861,-0.94031 -3.590269,-1.70965 2.564477,-1.28224 2.308031,3.50479 0.940308,2.90641 1.453206,-0.5129 -0.427413,-1.28224 1.538687,0.68386 1.795134,-0.59838 -2.265289,-1.92336 0.299189,-1.58142 3.9322,1.62417 6.92409,2.30803 0.512895,-2.05159 -1.624168,-1.02579 0.34193,-0.85482 -6.753126,-2.30803 c 0,0 4.810651,-4.13641 4.701543,-6.92409 -0.05709,-1.4585 -1.34846,-2.9646 -2.735443,-3.41931 -1.878437,-0.61583 -5.727334,1.53869 -5.727334,1.53869 0,0 2.59487,-2.58847 2.735442,-4.27413 0.157022,-1.88291 -2.222548,-5.21444 -2.222548,-5.21444 0,0 4.161679,-6.21506 5.385405,-9.31761 1.33726,-3.39039 1.966101,-9.8305 1.966101,-9.8305 l -3.419305,9.48858 c 0,0 -3.366848,6.50718 -6.496677,7.77891 -1.539268,0.62545 -4.252488,0.59412 -5.727336,-0.17096 -2.348481,-1.21828 -5.727333,-6.58217 -5.727333,-6.58217 z"
       id="path5447"
       inkscape:connector-curvature="0"
       sodipodi:nodetypes="cscscssccsscccccccccccccccccccccccsscscsccsccc" />
    <circle
       style="opacity:1;fill:#ffffff;fill-opacity:1;stroke:#00d6bc;stroke-width:0;stroke-linejoin:miter;stroke-miterlimit:4;stroke-dasharray:none;stroke-opacity:1"
       id="path5413"
       cx="77.951912"
       cy="161.42943"
       r="3.4613132" />
    <circle
       style="display:inline;opacity:1;fill:#ffffff;fill-opacity:1;stroke:#00d6bc;stroke-width:0;stroke-linejoin:miter;stroke-miterlimit:4;stroke-dasharray:none;stroke-opacity:1"
       id="path5413-8"
       cx="54.401455"
       cy="163.09636"
       r="3.4613132" />
    <circle
       style="display:inline;opacity:1;fill:#000000;fill-opacity:1;stroke:#00d6bc;stroke-width:0;stroke-linejoin:miter;stroke-miterlimit:4;stroke-dasharray:none;stroke-opacity:1"
       id="path5413-8-0"
       cx="54.240688"
       cy="163.1391"
       r="0.85409415" />
    <circle
       style="display:inline;opacity:1;fill:#000000;fill-opacity:1;stroke:#00d6bc;stroke-width:0;stroke-linejoin:miter;stroke-miterlimit:4;stroke-dasharray:none;stroke-opacity:1"
       id="path5413-8-0-6"
       cx="77.876633"
       cy="161.47218"
       r="0.85409415" />
    <path
       style="fill:#ffffff;stroke:none;stroke-width:0.26458332px;stroke-linecap:butt;stroke-linejoin:miter;stroke-opacity:1;fill-opacity:1"
       d="m 49.667368,192.75882 4.274131,-3.67576 -1.282239,-5.12895 3.333822,-5.64186 -4.188648,5.21444 1.282239,5.12896 z"
       id="path6094"
       inkscape:connector-curvature="0" />
    <path
       style="fill:#ffffff;stroke:none;stroke-width:0.26458332px;stroke-linecap:butt;stroke-linejoin:miter;stroke-opacity:1;fill-opacity:1"
       d="m 78.389524,187.71534 3.675753,1.88062 -1.111274,6.06926 1.9661,3.41931 -1.367721,-3.50479 1.282237,-6.58216 z"
       id="path6096"
       inkscape:connector-curvature="0" />
    <path
       style="fill:#ffffff;stroke:none;stroke-width:0.26458332px;stroke-linecap:butt;stroke-linejoin:miter;stroke-opacity:1;fill-opacity:1"
       d="m 76.081495,178.65419 4.530576,-8.63375 -3.590268,8.3773 1.880618,3.4193 z"
       id="path6098"
       inkscape:connector-curvature="0" />
    <path
       style="fill:#ffffff;stroke:none;stroke-width:0.26458332px;stroke-linecap:butt;stroke-linejoin:miter;stroke-opacity:1;fill-opacity:1"
       d="m 68.986439,175.49133 3.846716,-7.00957 -4.616061,6.92409 -4.103164,1.53868 z"
       id="path6100"
       inkscape:connector-curvature="0" />
    <path
       style="fill:#ffffff;stroke:none;stroke-width:0.26458332px;stroke-linecap:butt;stroke-linejoin:miter;stroke-opacity:1;fill-opacity:1"
       d="m 50.864125,207.37634 7.180539,0.42741 6.069266,2.56448 2.649961,-2.22254 -2.820927,2.99189 -6.582161,-2.39352 z"
       id="path6102"
       inkscape:connector-curvature="0" />
    <path
       style="fill:#ffffff;stroke:none;stroke-width:0.26458332px;stroke-linecap:butt;stroke-linejoin:miter;stroke-opacity:1;fill-opacity:1"
       d="m 44.623895,194.2975 3.504787,-4.78702 -1.62417,-6.58216 3.761235,-6.92409 -4.616061,7.69343 1.9661,5.55637 z"
       id="path6104"
       inkscape:connector-curvature="0" />
    <path
       style="fill:#ffffff;stroke:none;stroke-width:0.26458332px;stroke-linecap:butt;stroke-linejoin:miter;stroke-opacity:1;fill-opacity:1"
       d="m 84.287824,191.56206 0.683861,-5.04347 -4.274129,-1.53869 -1.966101,-6.66765 2.735443,6.15475 4.359613,1.79514 z"
       id="path6106"
       inkscape:connector-curvature="0" />
    <path
       style="fill:#ffffff;stroke:none;stroke-width:0.26458332px;stroke-linecap:butt;stroke-linejoin:miter;stroke-opacity:1;fill-opacity:1"
       d="m 88.390991,201.64901 -3.333822,-5.55637 4.017682,-10.77081 -3.162858,10.68533 z"
       id="path6108"
       inkscape:connector-curvature="0" />
    <path
       style="fill:#ffffff;stroke:none;stroke-width:0.26458332px;stroke-linecap:butt;stroke-linejoin:miter;stroke-opacity:1;fill-opacity:1"
       d="m 46.419029,178.22677 4.616061,-8.12085 -2.820926,-3.67575 0.256448,-5.64185 -0.769343,6.24023 2.30803,2.99189 z"
       id="path6110"
       inkscape:connector-curvature="0" />
    <path
       style="fill:#ffffff;stroke:none;stroke-width:0.26458332px;stroke-linecap:butt;stroke-linejoin:miter;stroke-opacity:1;fill-opacity:1"
       d="m 48.641577,198.7426 -1.795134,2.99189 1.538686,3.76124 -2.64996,-4.18865 z"
       id="path6112"
       inkscape:connector-curvature="0" />
    <path
       style="fill:#ffffff;stroke:none;stroke-width:0.26458332px;stroke-linecap:butt;stroke-linejoin:miter;stroke-opacity:1;fill-opacity:1"
       d="m 76.423424,206.77796 6.582161,1.28224 0.94031,-4.01768 -0.683863,5.21444 z"
       id="path6114"
       inkscape:connector-curvature="0" />
    <path
       style="fill:#ffffff;stroke:none;stroke-width:0.26458332px;stroke-linecap:butt;stroke-linejoin:miter;stroke-opacity:1;fill-opacity:1"
       d="m 61.805898,174.29457 -3.077374,-4.18865 -1.025789,-3.24833 2.564476,-3.76124 -1.880616,4.27413 0.854827,2.73544 z"
       id="path6116"
       inkscape:connector-curvature="0" />
    <path
       style="fill:#ffffff;stroke:none;stroke-width:0.26458332px;stroke-linecap:butt;stroke-linejoin:miter;stroke-opacity:1;fill-opacity:1"
       d="m 60.86559,158.82222 2.137066,3.84672 -1.9661,3.33382 3.504787,-4.18865 z"
       id="path6118"
       inkscape:connector-curvature="0" />
    <path
       style="fill:#ffffff;stroke:none;stroke-width:0.26458332px;stroke-linecap:butt;stroke-linejoin:miter;stroke-opacity:1;fill-opacity:1"
       d="m 73.34605,164.46407 -1.880616,-4.27413 5.812816,-4.27413 -7.522469,4.4451 z"
       id="path6120"
       inkscape:connector-curvature="0" />
    <path
       style="fill:#ffffff;stroke:none;stroke-width:0.26458332px;stroke-linecap:butt;stroke-linejoin:miter;stroke-opacity:1;fill-opacity:1"
       d="m 81.039485,176.08971 5.128958,-12.65143 -2.137066,-2.99189 3.24834,3.4193 z"
       id="path6122"
       inkscape:connector-curvature="0" />
    <path
       style="fill:#ffffff;stroke:none;stroke-width:0.26458332px;stroke-linecap:butt;stroke-linejoin:miter;stroke-opacity:1;fill-opacity:1"
       d="m 85.313617,181.21866 6.411195,2.479 -2.137066,7.94988 2.906408,-8.89019 z"
       id="path6124"
       inkscape:connector-curvature="0" />
    <path
       style="fill:#ffffff;stroke:none;stroke-width:0.26458332px;stroke-linecap:butt;stroke-linejoin:miter;stroke-opacity:1;fill-opacity:1"
       d="m 44.196482,188.65565 -3.419304,-9.40309 5.470886,-9.3176 -6.069265,9.48857 z"
       id="path6126"
       inkscape:connector-curvature="0" />
    <path
       style="fill:#ffffff;stroke:none;stroke-width:0.26458332px;stroke-linecap:butt;stroke-linejoin:miter;stroke-opacity:1;fill-opacity:1"
       d="m 43.598103,200.02484 1.880618,-2.13707 -3.248339,-4.01768 1.880617,-2.90641 -2.478996,2.90641 3.333822,3.9322 z"
       id="path6128"
       inkscape:connector-curvature="0" />
    <path
       style="fill:#ffffff;stroke:none;stroke-width:0.26458332px;stroke-linecap:butt;stroke-linejoin:miter;stroke-opacity:1;fill-opacity:1"
       d="m 85.313617,207.46182 0.427413,-4.70154 4.445095,1.53869 -2.393513,-9.40309 2.906408,9.8305 -4.701543,-1.28224 z"
       id="path6130"
       inkscape:connector-curvature="0" />
    <path
       style="fill:#ffffff;stroke:none;stroke-width:0.26458332px;stroke-linecap:butt;stroke-linejoin:miter;stroke-opacity:1;fill-opacity:1"
       d="m 65.82358,211.65047 5.641854,-3.84672 3.675753,0.0855 6.069263,2.47899 -7.180537,-1.88061 -2.137066,0.0855 z"
       id="path6132"
       inkscape:connector-curvature="0" />
    <path
       style="fill:#ffffff;stroke:none;stroke-width:0.26458332px;stroke-linecap:butt;stroke-linejoin:miter;stroke-opacity:1;fill-opacity:1"
       d="m 51.03509,157.96739 4.359613,-1.36772 4.530579,3.84672 -4.701544,-4.53058 z"
       id="path6134"
       inkscape:connector-curvature="0" />
    <path
       style="fill:#ffffff;stroke:none;stroke-width:0.26458332px;stroke-linecap:butt;stroke-linejoin:miter;stroke-opacity:1;fill-opacity:1"
       d="m 80.184658,157.11257 7.095059,4.95799 1.367721,3.16286 -1.28224,-4.35962 z"
       id="path6136"
       inkscape:connector-curvature="0" />
    <rect
       style="opacity:1;fill:#000000;fill-opacity:1;stroke:none;stroke-width:0;stroke-linejoin:miter;stroke-miterlimit:4;stroke-dasharray:none;stroke-opacity:1"
       id="rect6140"
       width="9.4030867"
       height="2.9918911"
       x="153.0244"
       y="117.11919"
       transform="rotate(33.645957)" />
    <rect
       style="display:inline;opacity:1;fill:#000000;fill-opacity:1;stroke:none;stroke-width:0;stroke-linejoin:miter;stroke-miterlimit:4;stroke-dasharray:none;stroke-opacity:1"
       id="rect6140-6"
       width="9.4030867"
       height="2.9918911"
       x="43.855213"
       y="189.72594"
       transform="matrix(-0.8324771,0.55405946,0.55405946,0.8324771,0,0)" />
  </g>
  <g
     inkscape:groupmode="layer"
     id="layer3"
     inkscape:label="LegsAndArms"
     transform="translate(-28.895095,-147.96593)" />
</svg>
