<?xml version="1.0" encoding="UTF-8" standalone="no"?>
<!-- Created with Inkscape (http://www.inkscape.org/) -->

<svg
   xmlns:dc="http://purl.org/dc/elements/1.1/"
   xmlns:cc="http://creativecommons.org/ns#"
   xmlns:rdf="http://www.w3.org/1999/02/22-rdf-syntax-ns#"
   xmlns:svg="http://www.w3.org/2000/svg"
   xmlns="http://www.w3.org/2000/svg"
   xmlns:sodipodi="http://sodipodi.sourceforge.net/DTD/sodipodi-0.dtd"
   xmlns:inkscape="http://www.inkscape.org/namespaces/inkscape"
   width="91.840454mm"
   height="83.099998mm"
   viewBox="0 0 91.840455 83.099999"
   version="1.1"
   id="svg8"
   inkscape:version="0.92.4 (5da689c313, 2019-01-14)"
   sodipodi:docname="yeehaw.svg">
  <defs
     id="defs2">
    <inkscape:path-effect
       effect="bspline"
       id="path-effect836"
       is_visible="true"
       weight="33.333333"
       steps="2"
       helper_size="0"
       apply_no_weight="true"
       apply_with_weight="true"
       only_selected="false" />
    <inkscape:path-effect
       effect="bspline"
       id="path-effect832"
       is_visible="true"
       weight="33.333333"
       steps="2"
       helper_size="0"
       apply_no_weight="true"
       apply_with_weight="true"
       only_selected="false" />
    <inkscape:path-effect
       effect="bspline"
       id="path-effect836-2"
       is_visible="true"
       weight="33.333333"
       steps="2"
       helper_size="0"
       apply_no_weight="true"
       apply_with_weight="true"
       only_selected="false" />
  </defs>
  <sodipodi:namedview
     id="base"
     pagecolor="#ffffff"
     bordercolor="#666666"
     borderopacity="1.0"
     inkscape:pageopacity="0.0"
     inkscape:pageshadow="2"
     inkscape:zoom="2.392417"
     inkscape:cx="164.55451"
     inkscape:cy="160.92372"
     inkscape:document-units="mm"
     inkscape:current-layer="layer1"
     showgrid="false"
     inkscape:pagecheckerboard="true"
     inkscape:window-width="1920"
     inkscape:window-height="1001"
     inkscape:window-x="-9"
     inkscape:window-y="-9"
     inkscape:window-maximized="1" />
  <metadata
     id="metadata5">
    <rdf:RDF>
      <cc:Work
         rdf:about="">
        <dc:format>image/svg+xml</dc:format>
        <dc:type
           rdf:resource="http://purl.org/dc/dcmitype/StillImage" />
        <dc:title></dc:title>
      </cc:Work>
    </rdf:RDF>
  </metadata>
  <g
     inkscape:label="Layer 1"
     inkscape:groupmode="layer"
     id="layer1"
     transform="translate(-66.062722,-75.228969)">
    <circle
       style="opacity:1;fill:#3dff6a;fill-opacity:1;stroke:none;stroke-width:0;stroke-linejoin:miter;stroke-miterlimit:4;stroke-dasharray:none;stroke-opacity:1"
       id="path822"
       cx="111.98295"
       cy="117.29696"
       r="40" />
    <rect
       style="opacity:1;fill:#ffffff;fill-opacity:1;stroke:none;stroke-width:3.14414358;stroke-linejoin:miter;stroke-miterlimit:4;stroke-dasharray:none;stroke-opacity:0.83084579"
       id="rect897"
       width="10.174508"
       height="45.674694"
       x="107.11688"
       y="105.51199" />
    <rect
       style="opacity:1;fill:#ffffff;fill-opacity:1;stroke:none;stroke-width:2.93955088;stroke-linejoin:miter;stroke-miterlimit:4;stroke-dasharray:none;stroke-opacity:0.83084579"
       id="rect897-8-9"
       width="10.174508"
       height="39.923882"
       x="158.15703"
       y="-17.074011"
       transform="matrix(0.73456186,0.67854172,0.67854172,-0.73456186,0,0)" />
    <rect
       style="opacity:1;fill:#ffffff;fill-opacity:1;stroke:none;stroke-width:2.93955088;stroke-linejoin:miter;stroke-miterlimit:4;stroke-dasharray:none;stroke-opacity:0.83084579"
       id="rect897-8"
       width="10.174508"
       height="39.923885"
       x="-2.7043936"
       y="129.96535"
       transform="rotate(-42.729792)" />
    <path
       style="fill:#000000;stroke-width:0.12569471"
       d="m 111.5554,133.17192 c -0.13827,-0.024 -1.1564,-0.10887 -2.26251,-0.18855 -1.10611,-0.0797 -2.28767,-0.16725 -2.62569,-0.19457 -1.17339,-0.0949 -4.42504,-0.91595 -5.41877,-1.3683 -1.790533,-0.81508 -3.510863,-1.67733 -4.085073,-2.0475 -0.63013,-0.40622 -2.675419,-1.56357 -4.587857,-2.5961 -0.414792,-0.22394 -1.178388,-0.64691 -1.696878,-0.93992 -0.518491,-0.29301 -1.310368,-0.7342 -1.759726,-0.98042 -0.896502,-0.49122 -4.173114,-2.5442 -4.27362,-2.67765 -0.03457,-0.0459 -0.76988,-0.55593 -1.634031,-1.1334 -1.854195,-1.23907 -2.513895,-1.84613 -2.513895,-2.31331 0,-0.38961 0.510546,-0.94687 0.867492,-0.94687 0.365213,0 2.040663,0.82243 3.343281,1.64113 l 1.131252,0.71099 1.634032,0.14051 c 0.898717,0.0773 2.199657,0.16984 2.890978,0.20569 1.874684,0.0972 3.520249,0.18772 4.68213,0.25752 0.89968,0.11667 1.496382,-0.49471 1.601762,-1.17607 0.0479,-0.32212 0.22408,-1.26442 0.39145,-2.09401 0.16738,-0.82958 0.4443,-2.27193 0.6154,-3.20521 0.32309,-1.76238 1.13753,-5.16414 1.54981,-6.47328 0.13063,-0.41479 0.362714,-1.17839 0.515734,-1.69688 1.453619,-4.92545 1.714389,-5.31578 3.783229,-5.66296 0.8117,-0.13621 1.13939,-0.129 2.29154,0.0504 1.71764,0.26752 2.49622,0.56409 3.8436,1.46409 0.59833,0.39967 1.3069,0.81781 1.57459,0.92921 0.95325,0.3967 2.39943,0.19467 3.78691,-0.52903 1.16273,-0.60647 1.70741,-0.81364 3.07879,-1.17101 2.95542,-0.77016 4.48425,-0.36867 5.22846,1.37306 0.41225,0.96482 1.15622,3.70563 1.62789,5.99725 0.34228,1.66296 0.73126,3.96099 0.99996,5.90765 0.55724,4.03693 0.87124,5.75071 1.07329,5.8579 1.19029,0.66664 2.3479,1.0138 3.46943,0.99246 1.25474,0 2.83883,-0.0528 3.52019,-0.1173 0.68136,-0.0645 2.28525,-0.18513 3.56419,-0.26805 1.96646,-0.12749 2.42748,-0.19655 2.98703,-0.44744 0.94202,-0.42238 1.97007,-0.5271 2.29428,-0.23369 0.40869,0.36987 0.29331,0.59543 -0.62827,1.22825 -2.59718,1.78338 -5.04324,3.22282 -8.44329,4.96862 -2.06856,1.06213 -2.3013,1.19826 -4.31706,2.52504 -0.69132,0.45503 -1.42663,0.91867 -1.63403,1.03031 -1.83583,0.98822 -2.5744,1.32561 -4.06522,1.85706 -2.80172,0.99875 -5.44513,1.37753 -9.57265,1.37167 -1.41721,-0.002 -2.68987,-0.0233 -2.82813,-0.0473 z"
       id="path895"
       inkscape:connector-curvature="0"
       sodipodi:nodetypes="ccccscsccssscccccccccscccccccccccsccccssccccc" />
    <path
       sodipodi:type="star"
       style="opacity:1;fill:#ffffff;fill-opacity:1;stroke:none;stroke-width:1.77895761;stroke-linejoin:miter;stroke-miterlimit:4;stroke-dasharray:none;stroke-opacity:0.83084579"
       id="path929"
       sodipodi:sides="5"
       sodipodi:cx="112.01411"
       sodipodi:cy="120.02866"
       sodipodi:r1="9.233716"
       sodipodi:r2="4.616858"
       sodipodi:arg1="0.93155656"
       sodipodi:arg2="1.5598751"
       inkscape:flatsided="false"
       inkscape:rounded="0"
       inkscape:randomized="0"
       d="m 117.52281,127.43918 -5.45828,-2.79393 -5.39596,2.91247 0.97049,-6.0545 -4.43738,-4.23186 6.05808,-0.94795 2.65351,-5.52791 2.7736,5.46863 6.07734,0.81542 -4.34389,4.32776 z"
       inkscape:transform-center-x="0.031158146"
       inkscape:transform-center-y="-0.85205496" />
  </g>
</svg>
